<svg id="OUTLINE_-_use_this_to_export_SVG" data-name="OUTLINE - use this to export SVG" xmlns="http://www.w3.org/2000/svg" viewBox="0 0 88 87.9955">
  <defs>
    <style>
      .cls-1 {
        fill: none;
      }

      .cls-2 {
        fill: #fff;
      }

      .cls-3 {
        fill: #4d4c4c;
      }

      .cls-4 {
        fill: #e6e5e5;
      }

      .cls-5 {
        fill: #b1b1b1;
      }
    </style>
  </defs>
  <title>cash_refund</title>
  <g id="cash_refund">
    <rect class="cls-1" y="-0.00225" width="88" height="88"/>
    <g>
      <g>
        <polyline class="cls-2" points="25.921 30.622 55.781 22.313 62.91 47.933 29.552 57.215"/>
        <path class="cls-3" d="M29.55127,57.81543a.60007.60007,0,0,1-.16016-1.17822l32.78028-9.1211L55.36426,23.05225,26.08154,31.2002a.6.6,0,0,1-.32129-1.15625l29.86036-8.3086a.60058.60058,0,0,1,.73877.41748l7.1289,25.61963a.6002.6002,0,0,1-.41748.73877L29.7124,57.79346A.6127.6127,0,0,1,29.55127,57.81543Z"/>
      </g>
      <g>
        <rect class="cls-4" x="18.29221" y="30.62218" width="46.54003" height="26.59308"/>
        <path class="cls-3" d="M64.832,57.81543H18.292a.6.6,0,0,1-.6001-.6001V30.62207a.6.6,0,0,1,.6001-.6001h46.54a.6.6,0,0,1,.6001.6001V57.21533A.6.6,0,0,1,64.832,57.81543Zm-45.93994-1.2002H64.23193V31.22217H18.89209Z"/>
      </g>
      <g>
        <path class="cls-4" d="M59.45805,49.13436V38.70306a3.50129,3.50129,0,0,1-3.50112-3.50133H27.16746a3.5013,3.5013,0,0,1-3.50113,3.50133v10.4313a3.50128,3.50128,0,0,1,3.50113,3.50126H55.95693A3.50127,3.50127,0,0,1,59.45805,49.13436Z"/>
        <path class="cls-3" d="M55.957,53.23584H27.16748a.6.6,0,0,1-.6001-.6001,2.90419,2.90419,0,0,0-2.90088-2.90137.59994.59994,0,0,1-.60009-.60009V38.70312a.59994.59994,0,0,1,.60009-.60009,2.90419,2.90419,0,0,0,2.90088-2.90137.6.6,0,0,1,.6001-.6001H55.957a.6.6,0,0,1,.6001.6001A2.90419,2.90419,0,0,0,59.458,38.103a.6.6,0,0,1,.6001.60009V49.13428a.6.6,0,0,1-.6001.60009,2.90419,2.90419,0,0,0-2.90088,2.90137A.6.6,0,0,1,55.957,53.23584Zm-28.2334-1.2002H55.40088a4.11,4.11,0,0,1,3.457-3.45752V39.25928a4.11,4.11,0,0,1-3.457-3.45752H27.72363a4.11,4.11,0,0,1-3.457,3.45752v9.31884A4.11,4.11,0,0,1,27.72363,52.03564Z"/>
      </g>
      <g>
        <circle class="cls-2" cx="41.65728" cy="43.82366" r="4.73009"/>
        <path class="cls-3" d="M41.65723,49.15381a5.33008,5.33008,0,1,1,5.33007-5.33008A5.33618,5.33618,0,0,1,41.65723,49.15381Zm0-9.46a4.12988,4.12988,0,1,0,4.12988,4.12988A4.13441,4.13441,0,0,0,41.65723,39.69385Z"/>
      </g>
      <g>
        <circle class="cls-5" cx="62.84195" cy="55.21325" r="10.86585"/>
        <path class="cls-3" d="M62.8418,66.6792A11.46607,11.46607,0,1,1,74.30811,55.21338,11.47882,11.47882,0,0,1,62.8418,66.6792Zm0-21.73193A10.26587,10.26587,0,1,0,73.10791,55.21338,10.27746,10.27746,0,0,0,62.8418,44.94727Z"/>
      </g>
      <g>
        <path class="cls-3" d="M57.99365,58.27979a.6005.6005,0,0,1-.53369-.32471,5.94763,5.94763,0,0,1-.481-1.271.59983.59983,0,0,1,1.16309-.29394,4.76645,4.76645,0,0,0,.38428,1.01416.60009.60009,0,0,1-.53272.87549Z"/>
        <path class="cls-3" d="M62.78418,61.20068A5.96768,5.96768,0,0,1,57.46,57.95459a.5999.5999,0,1,1,1.06641-.5498,4.78915,4.78915,0,0,0,8.94775-1.22608.6.6,0,0,1,1.17578.24024A6.006,6.006,0,0,1,62.78418,61.20068Z"/>
        <path class="cls-3" d="M68.0083,54.49561a.60039.60039,0,0,1-.58154-.45362,4.71485,4.71485,0,0,0-.4375-1.11816.6.6,0,1,1,1.05273-.57617,5.93047,5.93047,0,0,1,.54883,1.40136.60049.60049,0,0,1-.43555.72852A.61121.61121,0,0,1,68.0083,54.49561Z"/>
        <path class="cls-3" d="M57.55957,54.49561a.60021.60021,0,0,1-.58252-.7461,5.98894,5.98894,0,0,1,11.06543-1.40137.60024.60024,0,1,1-1.05371.5752,4.78856,4.78856,0,0,0-8.84766,1.11816A.60029.60029,0,0,1,57.55957,54.49561Z"/>
        <path class="cls-3" d="M57.38135,55.12451a.60018.60018,0,0,1-.52735-.313l-1.206-2.21386a.6.6,0,1,1,1.05371-.57422l.919,1.687,1.687-.91846a.6.6,0,0,1,.57422,1.05371L57.668,55.05127A.59611.59611,0,0,1,57.38135,55.12451Z"/>
        <path class="cls-3" d="M69.50928,58.27881a.60018.60018,0,0,1-.52735-.313l-.89209-1.63818-1.63769.89209a.6.6,0,1,1-.57422-1.05371l2.165-1.1792a.59945.59945,0,0,1,.814.23974l1.17871,2.165a.60015.60015,0,0,1-.52636.88721Z"/>
      </g>
    </g>
  </g>
</svg>
